<svg id="visual" viewBox="0 0 960 540" width="960" height="540" xmlns="http://www.w3.org/2000/svg" xmlns:xlink="http://www.w3.org/1999/xlink" version="1.1"><rect x="0" y="0" width="960" height="540" fill="#fff"></rect><g fill="#004d43"><circle r="59" cx="287" cy="450"></circle><circle r="19" cx="473" cy="528"></circle><circle r="27" cx="311" cy="176"></circle><circle r="35" cx="764" cy="356"></circle><circle r="41" cx="138" cy="333"></circle><circle r="54" cx="639" cy="191"></circle><circle r="35" cx="958" cy="338"></circle><circle r="54" cx="17" cy="414"></circle><circle r="35" cx="192" cy="29"></circle><circle r="32" cx="585" cy="389"></circle><circle r="41" cx="515" cy="156"></circle><circle r="20" cx="104" cy="204"></circle><circle r="45" cx="786" cy="220"></circle><circle r="43" cx="385" cy="31"></circle><circle r="28" cx="887" cy="456"></circle><circle r="50" cx="10" cy="86"></circle><circle r="55" cx="742" cy="65"></circle><circle r="27" cx="137" cy="506"></circle><circle r="32" cx="414" cy="270"></circle><circle r="33" cx="871" cy="119"></circle><circle r="56" cx="719" cy="471"></circle><circle r="46" cx="554" cy="32"></circle><circle r="38" cx="15" cy="537"></circle><circle r="22" cx="600" cy="520"></circle><circle r="25" cx="259" cy="304"></circle><circle r="31" cx="11" cy="277"></circle><circle r="22" cx="955" cy="2"></circle><circle r="39" cx="442" cy="400"></circle><circle r="50" cx="955" cy="204"></circle></g></svg>