<?xml version="1.0" encoding="utf-8"?>
<!-- Generator: Adobe Illustrator 28.2.0, SVG Export Plug-In . SVG Version: 6.00 Build 0)  -->
<svg version="1.1" id="a" xmlns="http://www.w3.org/2000/svg" xmlns:xlink="http://www.w3.org/1999/xlink" x="0px" y="0px"
	 viewBox="0 0 970 204.2" style="enable-background:new 0 0 970 204.2;" xml:space="preserve">
<g>
	<path d="M141.7,174.3c0-3,2.6-5.1,5.5-5.1c5.2,0.1,7.9,3.3,8.8,7h0.3l-0.5-8c-0.6,0.5-1.6,0.9-2.2,0.9c-1.9,0-3.3-1.2-6.1-1.2
		c-4.7,0-8.8,2.6-8.8,7.5c0,9.2,15.1,11.3,15.1,20.5c0,3.9-1.9,7.2-6.1,7.2c-5.4,0-6.7-2.1-8.5-6.9h-0.4l0.6,8
		c0.6-0.5,1.3-0.6,2-0.6c1.9,0,4.2,0.8,6.1,0.8c5.5,0,9.6-3.7,9.6-9.2C157,184.3,141.7,182.7,141.7,174.3z M252.5,172.2l-0.1,19.7
		c0,8.3-4.7,10.5-9.6,10.5c-4.6,0-8.5-2.6-8.5-9v-21c0-1.9,0.9-3,2.2-4.2h-8.4c1.4,1.2,2.2,2.2,2.2,4.2v21c0,7.5,5.9,11.1,12.4,11.1
		c7.1,0,11.6-4.3,11.6-13.2v-19c0-2.4,0.8-3.5,1.6-4H251C251.7,168.7,252.5,169.8,252.5,172.2z M346,184.2c3.9-1.1,6-4.7,6-8.5
		c0.1-5.9-5.9-7.5-10.8-7.5h-13.9c1.7,1.6,2,2.7,2,5.1V199c0,2.4-1,3.5-2.6,5.1h15.4c7.6,0,12.2-2.9,12-9.6
		C354.1,189,350.5,185,346,184.2z M333.4,171.9c0-2,1-3,3.1-3h4.6c3.9,0,7.9,1.6,7.9,7.1c0,5-4.7,7.7-9.6,7.7h-5.9V171.9z
		 M342.2,203.6h-5.8c-2,0-3.1-1-3.1-3v-15.7h5.9c6.4,0,11.6,3.3,11.6,9.6C351,200.3,347.2,203.6,342.2,203.6z M440.6,168.1H437
		c0.6,0.6,1,1.2,0.9,1.8l-10.5,29.9c-0.5,1.5-1,3.1-2.1,4.3h4.1c-0.5-0.6-0.9-1.3-0.7-2l3.5-10.2h13.1l3.4,9.5c0.3,1-0.1,2-1,2.7
		h6.7c-1-1.2-1.5-2.7-2.1-4.3L440.6,168.1z M432.6,190.7l6-17.3l6.2,17.3H432.6z M528.4,174.3c0-3,2.6-5.1,5.5-5.1
		c5.2,0.1,7.9,3.3,8.8,7h0.3l-0.5-8c-0.6,0.5-1.6,0.9-2.2,0.9c-1.9,0-3.3-1.2-6.1-1.2c-4.7,0-8.8,2.6-8.8,7.5
		c0,9.2,15.1,11.3,15.1,20.5c0,3.9-1.9,7.2-6.1,7.2c-5.4,0-6.7-2.1-8.5-6.9h-0.4l0.6,8c0.6-0.5,1.3-0.6,2-0.6c1.9,0,4.2,0.8,6.1,0.8
		c5.5,0,9.6-3.7,9.6-9.2C543.7,184.3,528.4,182.7,528.4,174.3z M615.4,168.1l-0.6,8.1h0.2c1-4.7,2-7.1,5.3-7.1h2.2c1.9,0,3,1,3,3
		V199c0,2.4-1,3.5-2.6,5.1h9.3c-1.6-1.6-2.6-2.7-2.6-5.1v-26.9c0-2,1-3,3-3h2.3c2.6,0,4.3,2.7,5.2,7.1h0.2l-0.6-8.1H615.4z
		 M726.5,168.1h-3.6c0.6,0.6,1,1.2,0.9,1.8l-10.5,29.9c-0.5,1.5-1,3.1-2.1,4.3h4.1c-0.5-0.6-0.9-1.3-0.7-2l3.5-10.2h13.1l3.4,9.5
		c0.3,1-0.1,2-1,2.7h6.7c-1-1.2-1.5-2.7-2.1-4.3L726.5,168.1z M718.5,190.7l6-17.3l6.2,17.3H718.5z M814.3,174.3
		c0-3,2.6-5.1,5.5-5.1c5.2,0.1,7.9,3.3,8.8,7h0.3l-0.5-8c-0.6,0.5-1.6,0.9-2.2,0.9c-1.9,0-3.3-1.2-6.1-1.2c-4.7,0-8.8,2.6-8.8,7.5
		c0,9.2,15.1,11.3,15.1,20.5c0,3.9-1.9,7.2-6.1,7.2c-5.4,0-6.7-2.1-8.5-6.9h-0.4l0.6,8c0.6-0.5,1.3-0.6,2-0.6c1.9,0,4.2,0.8,6.1,0.8
		c5.5,0,9.6-3.7,9.6-9.2C829.7,184.3,814.3,182.7,814.3,174.3z"/>
	<path d="M327.7-0.2c-27.6,0-51.8,23.6-51.8,54s24.3,54,51.8,54c28.5,0,52.6-23.1,52.6-54S356.2-0.2,327.7-0.2z M328.2,103.5
		c-25.7,0-41.2-20-41.2-49.7s15.6-49.5,41.2-49.5c23.6,0,41,21.4,41,49.5S351.7,103.5,328.2,103.5z M244.3,0.9h-17.9l-30.2,65
		L150,0.9h-16c2.4,1.6,4.7,4.7,4.7,11.8v82c0,7.1-2.4,10.1-4.7,11.8h14.1c-2.4-1.6-4.7-4.7-4.7-11.8V16.5L192.9,86l33-70.9v79.2
		c0,5.9-2.1,9-6.1,12.3h24.5c-4-3.3-6.4-6.1-6.4-11.8v-82C237.9,7.1,240.3,4.2,244.3,0.9z M666.8-0.2c-27.6,0-51.8,23.6-51.8,54
		s24.3,54,51.8,54c28.5,0,52.6-23.1,52.6-54S695.3-0.2,666.8-0.2z M667.3,103.5c-25.7,0-41.2-20-41.2-49.7s15.6-49.5,41.2-49.5
		c23.6,0,41,21.4,41,49.5S690.9,103.5,667.3,103.5z M829.7,94.3V13.2c0-5.9,2.4-9,6.4-12.3h-24.5c4,3.3,6.4,6.4,6.4,12.3v65
		l-39.1-55.6c-4.2-5.9-6.8-12-6.8-19.3V0.9H754c4,3.3,6.4,6.4,6.4,12.3v81.1c0,5.9-2.4,9-6.4,12.3h24.3c-3.8-3.3-6.4-6.4-6.4-12.3
		V22.9l37.7,54c4.9,7.3,8.2,14.8,8.2,23.8v5.9H836C832,103.2,829.7,100.2,829.7,94.3z M500.2,120.7c-1.9,0-3.5-0.5-5.2-1.4
		c-21.4-11.1-24.5-47.4-48.3-56.8h1.4c16.7,0,29.5-13.9,29.5-32.8c0.2-20.3-13.4-28.8-26.6-28.8h-37c4.9,4.7,5.9,8,5.9,15.1v75.4
		c0,7.1-2.8,10.4-7.8,15.1h31.8c-4.7-4.7-12.3-8-12.3-15.1v-29h0.9c4.2,0,6.8,0.5,9,1.9c17.9,11.5,23.6,61,53.3,60.8
		c6.4,0,12.3-3.1,15.6-9.9l-0.5-0.2C506.6,119,503.3,120.7,500.2,120.7z M431.6,59.6V12.2c0-5.7,2.6-8.5,14.4-8.7
		c17,0,22.6,9.4,22.6,26.2c0,17.7-9.9,29.9-23.6,29.9H431.6z M513.6,0.9l-1.9,23.8h0.7c3.1-13.7,5.9-21,15.6-21h6.6
		c5.7,0,8.7,2.8,8.7,8.7v79c0,7.1-2.8,10.4-7.8,15.1h27.3c-4.7-4.7-7.8-8-7.8-15.1v-79c0-5.9,2.8-8.7,8.7-8.7h6.8
		c7.8,0,12.5,8,15.3,21h0.5l-1.9-23.8H513.6z"/>
</g>
</svg>
