<svg xmlns="http://www.w3.org/2000/svg" version="1.1" xmlns:xlink="http://www.w3.org/1999/xlink" xmlns:svgjs="http://svgjs.com/svgjs" width="1440" height="560" preserveAspectRatio="none" viewBox="0 0 1440 560"><g clip-path="url(&quot;#SvgjsClipPath1011&quot;)" fill="none"><rect width="1440" height="560" x="0" y="0" fill="rgba(255, 255, 255, 1)"></rect><circle r="93.335" cx="86.04" cy="-3.7" stroke="#d9e4e3" stroke-opacity="1" stroke-width="2"></circle><circle r="93.335" cx="287.75" cy="280.93" stroke="#d9e4e3" stroke-opacity="1" stroke-width="2"></circle><circle r="93.335" cx="664.63" cy="759.15" stroke="#d9e4e3" stroke-opacity="1" stroke-width="2"></circle><circle r="104.875" cx="1430.52" cy="507.05" stroke="#d9e4e3" stroke-opacity="1" stroke-width="2"></circle><circle r="142.775" cx="243.19" cy="143.63" stroke="#d9e4e3" stroke-opacity="1" stroke-width="2"></circle><circle r="105.285" cx="100.27" cy="460.41" stroke="#d9e4e3" stroke-opacity="1" stroke-width="2"></circle><circle r="87.81" cx="533.34" cy="137.25" stroke="#d9e4e3" stroke-opacity="1" stroke-width="2"></circle><circle r="165.96" cx="859.59" cy="557.51" stroke="#d9e4e3" stroke-opacity="1" stroke-width="2"></circle><circle r="71.42" cx="1097.71" cy="73.13" stroke="#d9e4e3" stroke-opacity="1" stroke-width="2"></circle><circle r="57.69" cx="733.81" cy="319.15" stroke="#d9e4e3" stroke-opacity="1" stroke-width="2"></circle><circle r="75.11" cx="106" cy="104.62" stroke="#d9e4e3" stroke-opacity="1" stroke-width="2"></circle><circle r="69.185" cx="1134.2" cy="85.44" stroke="#d9e4e3" stroke-opacity="1" stroke-width="2"></circle><circle r="59.03" cx="157.32" cy="503.37" stroke="#d9e4e3" stroke-opacity="1" stroke-width="2"></circle><circle r="105.52" cx="1240.91" cy="502.98" stroke="#d9e4e3" stroke-opacity="1" stroke-width="2"></circle><circle r="53.095" cx="635.16" cy="64.25" stroke="#d9e4e3" stroke-opacity="1" stroke-width="2"></circle><circle r="143.25" cx="878.82" cy="259.92" stroke="#d9e4e3" stroke-opacity="1" stroke-width="2"></circle><circle r="108.595" cx="489.09" cy="69.16" stroke="#d9e4e3" stroke-opacity="1" stroke-width="2"></circle><circle r="131.635" cx="329.2" cy="396.97" stroke="#d9e4e3" stroke-opacity="1" stroke-width="2"></circle><circle r="127.845" cx="510.5" cy="551.89" stroke="#d9e4e3" stroke-opacity="1" stroke-width="2"></circle><circle r="117.875" cx="446.55" cy="188.86" stroke="#d9e4e3" stroke-opacity="1" stroke-width="2"></circle><circle r="70.595" cx="111.45" cy="125.05" stroke="#d9e4e3" stroke-opacity="1" stroke-width="2"></circle><circle r="107.765" cx="1286.2" cy="46.75" stroke="#d9e4e3" stroke-opacity="1" stroke-width="2"></circle><circle r="107.015" cx="899.27" cy="432.96" stroke="#d9e4e3" stroke-opacity="1" stroke-width="2"></circle><circle r="106.695" cx="689.28" cy="370.96" stroke="#d9e4e3" stroke-opacity="1" stroke-width="2"></circle><circle r="63.005" cx="1385.08" cy="44.07" stroke="#d9e4e3" stroke-opacity="1" stroke-width="2"></circle><circle r="46.68" cx="625.13" cy="80.73" stroke="#d9e4e3" stroke-opacity="1" stroke-width="2"></circle><circle r="51.045" cx="322.19" cy="61.45" stroke="#d9e4e3" stroke-opacity="1" stroke-width="2"></circle><circle r="74.615" cx="622.95" cy="460.87" stroke="#d9e4e3" stroke-opacity="1" stroke-width="2"></circle><circle r="68.41" cx="718.37" cy="119.35" stroke="#d9e4e3" stroke-opacity="1" stroke-width="2"></circle><circle r="87.97" cx="517.38" cy="49.21" stroke="#d9e4e3" stroke-opacity="1" stroke-width="2"></circle><circle r="110.285" cx="1350.01" cy="102.11" stroke="#d9e4e3" stroke-opacity="1" stroke-width="2"></circle><circle r="184.44" cx="358.17" cy="316.53" stroke="#d9e4e3" stroke-opacity="1" stroke-width="2"></circle><circle r="133.975" cx="779.63" cy="517.46" stroke="#d9e4e3" stroke-opacity="1" stroke-width="2"></circle><circle r="83.59" cx="414.91" cy="492.69" stroke="#d9e4e3" stroke-opacity="1" stroke-width="2"></circle><circle r="74" cx="445.65" cy="171.44" stroke="#d9e4e3" stroke-opacity="1" stroke-width="2"></circle><circle r="126.035" cx="476.02" cy="536.52" stroke="#d9e4e3" stroke-opacity="1" stroke-width="2"></circle><circle r="88.57" cx="1141.17" cy="514.56" stroke="#d9e4e3" stroke-opacity="1" stroke-width="2"></circle><circle r="160.055" cx="641.86" cy="1.39" stroke="#d9e4e3" stroke-opacity="1" stroke-width="2"></circle><circle r="166.125" cx="1301.42" cy="377.95" stroke="#d9e4e3" stroke-opacity="1" stroke-width="2"></circle><circle r="175.235" cx="592.74" cy="70.39" stroke="#d9e4e3" stroke-opacity="1" stroke-width="2"></circle><circle r="69.765" cx="1054.37" cy="133.52" stroke="#d9e4e3" stroke-opacity="1" stroke-width="2"></circle><circle r="55.69" cx="1023.76" cy="58.03" stroke="#d9e4e3" stroke-opacity="1" stroke-width="2"></circle><circle r="92.85" cx="311.36" cy="56.52" stroke="#d9e4e3" stroke-opacity="1" stroke-width="2"></circle><circle r="130.025" cx="708.02" cy="402.27" stroke="#d9e4e3" stroke-opacity="1" stroke-width="2"></circle><circle r="50.875" cx="623.25" cy="290.42" stroke="#d9e4e3" stroke-opacity="1" stroke-width="2"></circle><circle r="172.42" cx="749.1" cy="154.7" stroke="#d9e4e3" stroke-opacity="1" stroke-width="2"></circle><circle r="70.655" cx="837.97" cy="115.11" stroke="#d9e4e3" stroke-opacity="1" stroke-width="2"></circle><circle r="176.035" cx="942.31" cy="392.77" stroke="#d9e4e3" stroke-opacity="1" stroke-width="2"></circle><circle r="171.515" cx="698.78" cy="520.42" stroke="#d9e4e3" stroke-opacity="1" stroke-width="2"></circle><circle r="158.35" cx="1333.92" cy="186.68" stroke="#d9e4e3" stroke-opacity="1" stroke-width="2"></circle><circle r="57.805" cx="1250.65" cy="50.07" stroke="#d9e4e3" stroke-opacity="1" stroke-width="2"></circle><circle r="179.69" cx="133.07" cy="342.64" stroke="#d9e4e3" stroke-opacity="1" stroke-width="2"></circle></g><defs><clipPath id="SvgjsClipPath1011"><rect width="1440" height="560" x="0" y="0"></rect></clipPath></defs></svg>