<svg id="visual" viewBox="0 0 900 600" width="900" height="600" xmlns="http://www.w3.org/2000/svg" xmlns:xlink="http://www.w3.org/1999/xlink" version="1.1"><rect width="900" height="600" fill="#fff"></rect><g><g transform="translate(260 75)"><path d="M0 -32L27.7 -16L27.7 16L0 32L-27.7 16L-27.7 -16Z" fill="#D9E4E3"></path></g><g transform="translate(200 361)"><path d="M0 -29L25.1 -14.5L25.1 14.5L0 29L-25.1 14.5L-25.1 -14.5Z" fill="#D9E4E3"></path></g><g transform="translate(824 473)"><path d="M0 -23L19.9 -11.5L19.9 11.5L0 23L-19.9 11.5L-19.9 -11.5Z" fill="#D9E4E3"></path></g><g transform="translate(291 462)"><path d="M0 -15L13 -7.5L13 7.5L0 15L-13 7.5L-13 -7.5Z" fill="#D9E4E3"></path></g><g transform="translate(472 299)"><path d="M0 -27L23.4 -13.5L23.4 13.5L0 27L-23.4 13.5L-23.4 -13.5Z" fill="#D9E4E3"></path></g><g transform="translate(762 299)"><path d="M0 -16L13.9 -8L13.9 8L0 16L-13.9 8L-13.9 -8Z" fill="#D9E4E3"></path></g><g transform="translate(24 595)"><path d="M0 -16L13.9 -8L13.9 8L0 16L-13.9 8L-13.9 -8Z" fill="#D9E4E3"></path></g><g transform="translate(665 415)"><path d="M0 -20L17.3 -10L17.3 10L0 20L-17.3 10L-17.3 -10Z" fill="#D9E4E3"></path></g><g transform="translate(333 117)"><path d="M0 -26L22.5 -13L22.5 13L0 26L-22.5 13L-22.5 -13Z" fill="#D9E4E3"></path></g><g transform="translate(531 67)"><path d="M0 -15L13 -7.5L13 7.5L0 15L-13 7.5L-13 -7.5Z" fill="#D9E4E3"></path></g><g transform="translate(73 297)"><path d="M0 -15L13 -7.5L13 7.5L0 15L-13 7.5L-13 -7.5Z" fill="#D9E4E3"></path></g><g transform="translate(556 320)"><path d="M0 -15L13 -7.5L13 7.5L0 15L-13 7.5L-13 -7.5Z" fill="#D9E4E3"></path></g><g transform="translate(75 390)"><path d="M0 -19L16.5 -9.5L16.5 9.5L0 19L-16.5 9.5L-16.5 -9.5Z" fill="#D9E4E3"></path></g><g transform="translate(350 48)"><path d="M0 -24L20.8 -12L20.8 12L0 24L-20.8 12L-20.8 -12Z" fill="#D9E4E3"></path></g><g transform="translate(431 392)"><path d="M0 -20L17.3 -10L17.3 10L0 20L-17.3 10L-17.3 -10Z" fill="#D9E4E3"></path></g><g transform="translate(275 179)"><path d="M0 -21L18.2 -10.5L18.2 10.5L0 21L-18.2 10.5L-18.2 -10.5Z" fill="#D9E4E3"></path></g><g transform="translate(701 22)"><path d="M0 -27L23.4 -13.5L23.4 13.5L0 27L-23.4 13.5L-23.4 -13.5Z" fill="#D9E4E3"></path></g><g transform="translate(548 142)"><path d="M0 -30L26 -15L26 15L0 30L-26 15L-26 -15Z" fill="#D9E4E3"></path></g><g transform="translate(202 285)"><path d="M0 -25L21.7 -12.5L21.7 12.5L0 25L-21.7 12.5L-21.7 -12.5Z" fill="#D9E4E3"></path></g><g transform="translate(494 513)"><path d="M0 -28L24.2 -14L24.2 14L0 28L-24.2 14L-24.2 -14Z" fill="#D9E4E3"></path></g><g transform="translate(171 209)"><path d="M0 -28L24.2 -14L24.2 14L0 28L-24.2 14L-24.2 -14Z" fill="#D9E4E3"></path></g><g transform="translate(13 521)"><path d="M0 -28L24.2 -14L24.2 14L0 28L-24.2 14L-24.2 -14Z" fill="#D9E4E3"></path></g><g transform="translate(497 206)"><path d="M0 -18L15.6 -9L15.6 9L0 18L-15.6 9L-15.6 -9Z" fill="#D9E4E3"></path></g><g transform="translate(745 577)"><path d="M0 -22L19.1 -11L19.1 11L0 22L-19.1 11L-19.1 -11Z" fill="#D9E4E3"></path></g><g transform="translate(796 370)"><path d="M0 -19L16.5 -9.5L16.5 9.5L0 19L-16.5 9.5L-16.5 -9.5Z" fill="#D9E4E3"></path></g><g transform="translate(67 475)"><path d="M0 -25L21.7 -12.5L21.7 12.5L0 25L-21.7 12.5L-21.7 -12.5Z" fill="#D9E4E3"></path></g><g transform="translate(593 209)"><path d="M0 -17L14.7 -8.5L14.7 8.5L0 17L-14.7 8.5L-14.7 -8.5Z" fill="#D9E4E3"></path></g><g transform="translate(83 566)"><path d="M0 -15L13 -7.5L13 7.5L0 15L-13 7.5L-13 -7.5Z" fill="#D9E4E3"></path></g><g transform="translate(438 146)"><path d="M0 -19L16.5 -9.5L16.5 9.5L0 19L-16.5 9.5L-16.5 -9.5Z" fill="#D9E4E3"></path></g><g transform="translate(135 34)"><path d="M0 -16L13.9 -8L13.9 8L0 16L-13.9 8L-13.9 -8Z" fill="#D9E4E3"></path></g><g transform="translate(529 453)"><path d="M0 -17L14.7 -8.5L14.7 8.5L0 17L-14.7 8.5L-14.7 -8.5Z" fill="#D9E4E3"></path></g><g transform="translate(426 538)"><path d="M0 -23L19.9 -11.5L19.9 11.5L0 23L-19.9 11.5L-19.9 -11.5Z" fill="#D9E4E3"></path></g><g transform="translate(343 418)"><path d="M0 -16L13.9 -8L13.9 8L0 16L-13.9 8L-13.9 -8Z" fill="#D9E4E3"></path></g><g transform="translate(419 211)"><path d="M0 -19L16.5 -9.5L16.5 9.5L0 19L-16.5 9.5L-16.5 -9.5Z" fill="#D9E4E3"></path></g><g transform="translate(94 194)"><path d="M0 -23L19.9 -11.5L19.9 11.5L0 23L-19.9 11.5L-19.9 -11.5Z" fill="#D9E4E3"></path></g><g transform="translate(250 402)"><path d="M0 -19L16.5 -9.5L16.5 9.5L0 19L-16.5 9.5L-16.5 -9.5Z" fill="#D9E4E3"></path></g><g transform="translate(716 178)"><path d="M0 -28L24.2 -14L24.2 14L0 28L-24.2 14L-24.2 -14Z" fill="#D9E4E3"></path></g><g transform="translate(785 155)"><path d="M0 -28L24.2 -14L24.2 14L0 28L-24.2 14L-24.2 -14Z" fill="#D9E4E3"></path></g><g transform="translate(439 80)"><path d="M0 -29L25.1 -14.5L25.1 14.5L0 29L-25.1 14.5L-25.1 -14.5Z" fill="#D9E4E3"></path></g><g transform="translate(696 501)"><path d="M0 -30L26 -15L26 15L0 30L-26 15L-26 -15Z" fill="#D9E4E3"></path></g><g transform="translate(155 573)"><path d="M0 -25L21.7 -12.5L21.7 12.5L0 25L-21.7 12.5L-21.7 -12.5Z" fill="#D9E4E3"></path></g><g transform="translate(865 27)"><path d="M0 -28L24.2 -14L24.2 14L0 28L-24.2 14L-24.2 -14Z" fill="#D9E4E3"></path></g><g transform="translate(29 216)"><path d="M0 -27L23.4 -13.5L23.4 13.5L0 27L-23.4 13.5L-23.4 -13.5Z" fill="#D9E4E3"></path></g><g transform="translate(428 1)"><path d="M0 -15L13 -7.5L13 7.5L0 15L-13 7.5L-13 -7.5Z" fill="#D9E4E3"></path></g><g transform="translate(768 85)"><path d="M0 -22L19.1 -11L19.1 11L0 22L-19.1 11L-19.1 -11Z" fill="#D9E4E3"></path></g><g transform="translate(678 332)"><path d="M0 -21L18.2 -10.5L18.2 10.5L0 21L-18.2 10.5L-18.2 -10.5Z" fill="#D9E4E3"></path></g><g transform="translate(610 23)"><path d="M0 -29L25.1 -14.5L25.1 14.5L0 29L-25.1 14.5L-25.1 -14.5Z" fill="#D9E4E3"></path></g><g transform="translate(310 575)"><path d="M0 -22L19.1 -11L19.1 11L0 22L-19.1 11L-19.1 -11Z" fill="#D9E4E3"></path></g><g transform="translate(298 4)"><path d="M0 -17L14.7 -8.5L14.7 8.5L0 17L-14.7 8.5L-14.7 -8.5Z" fill="#D9E4E3"></path></g><g transform="translate(849 319)"><path d="M0 -27L23.4 -13.5L23.4 13.5L0 27L-23.4 13.5L-23.4 -13.5Z" fill="#D9E4E3"></path></g><g transform="translate(895 434)"><path d="M0 -16L13.9 -8L13.9 8L0 16L-13.9 8L-13.9 -8Z" fill="#D9E4E3"></path></g><g transform="translate(609 510)"><path d="M0 -22L19.1 -11L19.1 11L0 22L-19.1 11L-19.1 -11Z" fill="#D9E4E3"></path></g><g transform="translate(61 67)"><path d="M0 -22L19.1 -11L19.1 11L0 22L-19.1 11L-19.1 -11Z" fill="#D9E4E3"></path></g><g transform="translate(286 287)"><path d="M0 -19L16.5 -9.5L16.5 9.5L0 19L-16.5 9.5L-16.5 -9.5Z" fill="#D9E4E3"></path></g><g transform="translate(266 523)"><path d="M0 -30L26 -15L26 15L0 30L-26 15L-26 -15Z" fill="#D9E4E3"></path></g><g transform="translate(564 397)"><path d="M0 -26L22.5 -13L22.5 13L0 26L-22.5 13L-22.5 -13Z" fill="#D9E4E3"></path></g><g transform="translate(357 182)"><path d="M0 -26L22.5 -13L22.5 13L0 26L-22.5 13L-22.5 -13Z" fill="#D9E4E3"></path></g><g transform="translate(507 578)"><path d="M0 -23L19.9 -11.5L19.9 11.5L0 23L-19.9 11.5L-19.9 -11.5Z" fill="#D9E4E3"></path></g><g transform="translate(157 481)"><path d="M0 -18L15.6 -9L15.6 9L0 18L-15.6 9L-15.6 -9Z" fill="#D9E4E3"></path></g><g transform="translate(825 557)"><path d="M0 -22L19.1 -11L19.1 11L0 22L-19.1 11L-19.1 -11Z" fill="#D9E4E3"></path></g><g transform="translate(866 240)"><path d="M0 -21L18.2 -10.5L18.2 10.5L0 21L-18.2 10.5L-18.2 -10.5Z" fill="#D9E4E3"></path></g><g transform="translate(179 94)"><path d="M0 -26L22.5 -13L22.5 13L0 26L-22.5 13L-22.5 -13Z" fill="#D9E4E3"></path></g><g transform="translate(697 246)"><path d="M0 -28L24.2 -14L24.2 14L0 28L-24.2 14L-24.2 -14Z" fill="#D9E4E3"></path></g><g transform="translate(55 142)"><path d="M0 -30L26 -15L26 15L0 30L-26 15L-26 -15Z" fill="#D9E4E3"></path></g><g transform="translate(660 592)"><path d="M0 -22L19.1 -11L19.1 11L0 22L-19.1 11L-19.1 -11Z" fill="#D9E4E3"></path></g><g transform="translate(13 351)"><path d="M0 -30L26 -15L26 15L0 30L-26 15L-26 -15Z" fill="#D9E4E3"></path></g><g transform="translate(861 100)"><path d="M0 -22L19.1 -11L19.1 11L0 22L-19.1 11L-19.1 -11Z" fill="#D9E4E3"></path></g><g transform="translate(149 401)"><path d="M0 -28L24.2 -14L24.2 14L0 28L-24.2 14L-24.2 -14Z" fill="#D9E4E3"></path></g><g transform="translate(393 281)"><path d="M0 -21L18.2 -10.5L18.2 10.5L0 21L-18.2 10.5L-18.2 -10.5Z" fill="#D9E4E3"></path></g><g transform="translate(625 143)"><path d="M0 -29L25.1 -14.5L25.1 14.5L0 29L-25.1 14.5L-25.1 -14.5Z" fill="#D9E4E3"></path></g><g transform="translate(766 438)"><path d="M0 -30L26 -15L26 15L0 30L-26 15L-26 -15Z" fill="#D9E4E3"></path></g><g transform="translate(505 367)"><path d="M0 -24L20.8 -12L20.8 12L0 24L-20.8 12L-20.8 -12Z" fill="#D9E4E3"></path></g><g transform="translate(442 470)"><path d="M0 -26L22.5 -13L22.5 13L0 26L-22.5 13L-22.5 -13Z" fill="#D9E4E3"></path></g><g transform="translate(368 490)"><path d="M0 -29L25.1 -14.5L25.1 14.5L0 29L-25.1 14.5L-25.1 -14.5Z" fill="#D9E4E3"></path></g><g transform="translate(634 279)"><path d="M0 -18L15.6 -9L15.6 9L0 18L-15.6 9L-15.6 -9Z" fill="#D9E4E3"></path></g><g transform="translate(800 245)"><path d="M0 -26L22.5 -13L22.5 13L0 26L-22.5 13L-22.5 -13Z" fill="#D9E4E3"></path></g><g transform="translate(767 14)"><path d="M0 -22L19.1 -11L19.1 11L0 22L-19.1 11L-19.1 -11Z" fill="#D9E4E3"></path></g><g transform="translate(376 587)"><path d="M0 -21L18.2 -10.5L18.2 10.5L0 21L-18.2 10.5L-18.2 -10.5Z" fill="#D9E4E3"></path></g><g transform="translate(143 318)"><path d="M0 -16L13.9 -8L13.9 8L0 16L-13.9 8L-13.9 -8Z" fill="#D9E4E3"></path></g><g transform="translate(572 586)"><path d="M0 -30L26 -15L26 15L0 30L-26 15L-26 -15Z" fill="#D9E4E3"></path></g><g transform="translate(872 164)"><path d="M0 -22L19.1 -11L19.1 11L0 22L-19.1 11L-19.1 -11Z" fill="#D9E4E3"></path></g><g transform="translate(204 29)"><path d="M0 -21L18.2 -10.5L18.2 10.5L0 21L-18.2 10.5L-18.2 -10.5Z" fill="#D9E4E3"></path></g><g transform="translate(329 343)"><path d="M0 -18L15.6 -9L15.6 9L0 18L-15.6 9L-15.6 -9Z" fill="#D9E4E3"></path></g><g transform="translate(121 126)"><path d="M0 -26L22.5 -13L22.5 13L0 26L-22.5 13L-22.5 -13Z" fill="#D9E4E3"></path></g><g transform="translate(889 597)"><path d="M0 -18L15.6 -9L15.6 9L0 18L-15.6 9L-15.6 -9Z" fill="#D9E4E3"></path></g><g transform="translate(20 11)"><path d="M0 -23L19.9 -11.5L19.9 11.5L0 23L-19.9 11.5L-19.9 -11.5Z" fill="#D9E4E3"></path></g><g transform="translate(520 4)"><path d="M0 -29L25.1 -14.5L25.1 14.5L0 29L-25.1 14.5L-25.1 -14.5Z" fill="#D9E4E3"></path></g><g transform="translate(890 508)"><path d="M0 -24L20.8 -12L20.8 12L0 24L-20.8 12L-20.8 -12Z" fill="#D9E4E3"></path></g><g transform="translate(230 578)"><path d="M0 -26L22.5 -13L22.5 13L0 26L-22.5 13L-22.5 -13Z" fill="#D9E4E3"></path></g><g transform="translate(3 282)"><path d="M0 -20L17.3 -10L17.3 10L0 20L-17.3 10L-17.3 -10Z" fill="#D9E4E3"></path></g><g transform="translate(689 90)"><path d="M0 -27L23.4 -13.5L23.4 13.5L0 27L-23.4 13.5L-23.4 -13.5Z" fill="#D9E4E3"></path></g><g transform="translate(728 385)"><path d="M0 -17L14.7 -8.5L14.7 8.5L0 17L-14.7 8.5L-14.7 -8.5Z" fill="#D9E4E3"></path></g><g transform="translate(123 253)"><path d="M0 -20L17.3 -10L17.3 10L0 20L-17.3 10L-17.3 -10Z" fill="#D9E4E3"></path></g><g transform="translate(8 420)"><path d="M0 -16L13.9 -8L13.9 8L0 16L-13.9 8L-13.9 -8Z" fill="#D9E4E3"></path></g><g transform="translate(613 352)"><path d="M0 -26L22.5 -13L22.5 13L0 26L-22.5 13L-22.5 -13Z" fill="#D9E4E3"></path></g><g transform="translate(220 471)"><path d="M0 -28L24.2 -14L24.2 14L0 28L-24.2 14L-24.2 -14Z" fill="#D9E4E3"></path></g><g transform="translate(896 364)"><path d="M0 -27L23.4 -13.5L23.4 13.5L0 27L-23.4 13.5L-23.4 -13.5Z" fill="#D9E4E3"></path></g><g transform="translate(593 85)"><path d="M0 -18L15.6 -9L15.6 9L0 18L-15.6 9L-15.6 -9Z" fill="#D9E4E3"></path></g><g transform="translate(546 253)"><path d="M0 -19L16.5 -9.5L16.5 9.5L0 19L-16.5 9.5L-16.5 -9.5Z" fill="#D9E4E3"></path></g><g transform="translate(213 159)"><path d="M0 -22L19.1 -11L19.1 11L0 22L-19.1 11L-19.1 -11Z" fill="#D9E4E3"></path></g></g></svg>