<svg id="visual" viewBox="0 0 900 600" width="900" height="600" xmlns="http://www.w3.org/2000/svg" xmlns:xlink="http://www.w3.org/1999/xlink" version="1.1"><rect x="0" y="0" width="900" height="600" fill="#fff"></rect><g fill="#D9E4E3"><circle r="46" cx="684" cy="593"></circle><circle r="9" cx="824" cy="362"></circle><circle r="14" cx="407" cy="359"></circle><circle r="30" cx="266" cy="276"></circle><circle r="42" cx="240" cy="135"></circle><circle r="17" cx="130" cy="239"></circle><circle r="8" cx="627" cy="465"></circle><circle r="25" cx="199" cy="390"></circle><circle r="19" cx="49" cy="463"></circle><circle r="34" cx="426" cy="591"></circle><circle r="16" cx="22" cy="295"></circle><circle r="34" cx="879" cy="28"></circle><circle r="31" cx="550" cy="111"></circle><circle r="36" cx="569" cy="317"></circle><circle r="11" cx="370" cy="269"></circle><circle r="41" cx="676" cy="112"></circle><circle r="39" cx="239" cy="515"></circle><circle r="22" cx="451" cy="466"></circle><circle r="15" cx="621" cy="208"></circle><circle r="31" cx="858" cy="252"></circle><circle r="36" cx="696" cy="322"></circle><circle r="32" cx="737" cy="456"></circle><circle r="42" cx="490" cy="250"></circle><circle r="20" cx="870" cy="128"></circle><circle r="19" cx="396" cy="20"></circle><circle r="17" cx="886" cy="469"></circle><circle r="41" cx="315" cy="571"></circle><circle r="8" cx="267" cy="23"></circle><circle r="19" cx="316" cy="392"></circle><circle r="19" cx="427" cy="111"></circle><circle r="12" cx="149" cy="581"></circle><circle r="35" cx="92" cy="147"></circle><circle r="42" cx="167" cy="32"></circle><circle r="40" cx="2" cy="171"></circle><circle r="21" cx="495" cy="2"></circle><circle r="38" cx="760" cy="245"></circle><circle r="14" cx="760" cy="150"></circle><circle r="29" cx="38" cy="3"></circle><circle r="14" cx="520" cy="529"></circle><circle r="25" cx="892" cy="578"></circle><circle r="20" cx="796" cy="553"></circle><circle r="12" cx="775" cy="33"></circle><circle r="33" cx="58" cy="587"></circle><circle r="34" cx="656" cy="15"></circle><circle r="28" cx="100" cy="362"></circle><circle r="22" cx="331" cy="101"></circle><circle r="23" cx="149" cy="474"></circle><circle r="25" cx="533" cy="422"></circle></g></svg>