<svg id="visual" viewBox="0 0 900 600" width="900" height="600" xmlns="http://www.w3.org/2000/svg" xmlns:xlink="http://www.w3.org/1999/xlink" version="1.1"><rect x="0" y="0" width="900" height="600" fill="#fff"></rect><g fill="#D9E4E3"><circle r="14" cx="758" cy="324"></circle><circle r="10" cx="235" cy="104"></circle><circle r="10" cx="364" cy="437"></circle><circle r="9" cx="851" cy="323"></circle><circle r="10" cx="215" cy="577"></circle><circle r="11" cx="475" cy="103"></circle><circle r="10" cx="44" cy="475"></circle><circle r="11" cx="854" cy="80"></circle><circle r="12" cx="397" cy="436"></circle><circle r="11" cx="569" cy="280"></circle><circle r="10" cx="12" cy="324"></circle><circle r="12" cx="301" cy="423"></circle><circle r="9" cx="589" cy="128"></circle><circle r="11" cx="855" cy="288"></circle><circle r="11" cx="248" cy="481"></circle><circle r="11" cx="356" cy="239"></circle><circle r="10" cx="736" cy="554"></circle><circle r="12" cx="832" cy="391"></circle><circle r="12" cx="291" cy="589"></circle><circle r="12" cx="613" cy="320"></circle><circle r="10" cx="658" cy="379"></circle><circle r="9" cx="321" cy="353"></circle><circle r="10" cx="4" cy="471"></circle><circle r="12" cx="806" cy="479"></circle><circle r="12" cx="514" cy="296"></circle><circle r="12" cx="608" cy="355"></circle><circle r="10" cx="657" cy="254"></circle><circle r="12" cx="855" cy="127"></circle><circle r="11" cx="444" cy="570"></circle><circle r="11" cx="13" cy="78"></circle><circle r="10" cx="61" cy="6"></circle><circle r="12" cx="456" cy="428"></circle><circle r="10" cx="826" cy="126"></circle><circle r="10" cx="558" cy="43"></circle><circle r="12" cx="304" cy="247"></circle><circle r="12" cx="56" cy="568"></circle><circle r="10" cx="444" cy="106"></circle><circle r="12" cx="85" cy="534"></circle><circle r="10" cx="636" cy="475"></circle><circle r="10" cx="85" cy="361"></circle><circle r="9" cx="148" cy="495"></circle><circle r="10" cx="203" cy="151"></circle><circle r="9" cx="263" cy="157"></circle><circle r="10" cx="588" cy="192"></circle><circle r="11" cx="175" cy="254"></circle><circle r="10" cx="783" cy="275"></circle><circle r="9" cx="702" cy="342"></circle><circle r="10" cx="152" cy="203"></circle><circle r="11" cx="170" cy="161"></circle><circle r="9" cx="650" cy="546"></circle><circle r="10" cx="106" cy="204"></circle><circle r="10" cx="707" cy="126"></circle><circle r="11" cx="427" cy="24"></circle><circle r="10" cx="885" cy="516"></circle><circle r="10" cx="333" cy="226"></circle><circle r="9" cx="752" cy="213"></circle><circle r="11" cx="830" cy="360"></circle><circle r="12" cx="219" cy="504"></circle><circle r="9" cx="284" cy="130"></circle><circle r="12" cx="511" cy="387"></circle><circle r="12" cx="631" cy="60"></circle><circle r="11" cx="353" cy="391"></circle><circle r="10" cx="108" cy="397"></circle><circle r="12" cx="492" cy="227"></circle><circle r="12" cx="732" cy="315"></circle><circle r="10" cx="684" cy="553"></circle><circle r="10" cx="808" cy="8"></circle><circle r="12" cx="327" cy="571"></circle><circle r="12" cx="114" cy="121"></circle><circle r="12" cx="169" cy="121"></circle><circle r="10" cx="484" cy="479"></circle><circle r="12" cx="177" cy="292"></circle><circle r="9" cx="57" cy="178"></circle><circle r="10" cx="892" cy="280"></circle><circle r="10" cx="717" cy="587"></circle><circle r="10" cx="399" cy="599"></circle><circle r="12" cx="328" cy="27"></circle><circle r="12" cx="543" cy="522"></circle><circle r="11" cx="257" cy="276"></circle><circle r="10" cx="429" cy="307"></circle><circle r="11" cx="805" cy="296"></circle><circle r="12" cx="668" cy="150"></circle><circle r="12" cx="817" cy="425"></circle><circle r="12" cx="893" cy="58"></circle><circle r="11" cx="896" cy="351"></circle><circle r="11" cx="275" cy="557"></circle><circle r="12" cx="684" cy="303"></circle><circle r="10" cx="724" cy="67"></circle><circle r="12" cx="156" cy="413"></circle><circle r="10" cx="579" cy="563"></circle><circle r="12" cx="896" cy="410"></circle><circle r="11" cx="665" cy="52"></circle><circle r="12" cx="514" cy="340"></circle><circle r="9" cx="23" cy="214"></circle><circle r="12" cx="606" cy="482"></circle><circle r="11" cx="271" cy="449"></circle><circle r="9" cx="876" cy="243"></circle><circle r="10" cx="83" cy="324"></circle><circle r="12" cx="398" cy="17"></circle><circle r="9" cx="626" cy="422"></circle><circle r="10" cx="192" cy="211"></circle><circle r="10" cx="531" cy="145"></circle><circle r="10" cx="82" cy="80"></circle><circle r="12" cx="585" cy="85"></circle><circle r="9" cx="284" cy="290"></circle><circle r="9" cx="476" cy="367"></circle><circle r="10" cx="606" cy="226"></circle><circle r="10" cx="691" cy="22"></circle><circle r="9" cx="370" cy="506"></circle><circle r="10" cx="624" cy="95"></circle><circle r="12" cx="719" cy="221"></circle><circle r="9" cx="108" cy="478"></circle><circle r="10" cx="253" cy="512"></circle><circle r="12" cx="789" cy="160"></circle><circle r="10" cx="408" cy="407"></circle><circle r="10" cx="708" cy="513"></circle><circle r="12" cx="752" cy="148"></circle><circle r="9" cx="353" cy="125"></circle><circle r="9" cx="423" cy="193"></circle><circle r="11" cx="785" cy="422"></circle><circle r="12" cx="136" cy="244"></circle><circle r="10" cx="779" cy="245"></circle><circle r="9" cx="639" cy="347"></circle><circle r="10" cx="795" cy="339"></circle><circle r="9" cx="8" cy="437"></circle><circle r="12" cx="775" cy="78"></circle><circle r="11" cx="141" cy="42"></circle><circle r="12" cx="432" cy="241"></circle><circle r="11" cx="747" cy="435"></circle><circle r="11" cx="480" cy="57"></circle><circle r="12" cx="346" cy="89"></circle><circle r="9" cx="219" cy="220"></circle><circle r="11" cx="672" cy="187"></circle><circle r="11" cx="35" cy="586"></circle><circle r="10" cx="281" cy="190"></circle><circle r="10" cx="516" cy="556"></circle><circle r="10" cx="590" cy="246"></circle><circle r="12" cx="635" cy="595"></circle><circle r="10" cx="53" cy="252"></circle><circle r="9" cx="52" cy="92"></circle><circle r="9" cx="813" cy="270"></circle><circle r="10" cx="163" cy="86"></circle><circle r="11" cx="103" cy="293"></circle><circle r="10" cx="690" cy="79"></circle><circle r="12" cx="790" cy="372"></circle><circle r="9" cx="244" cy="77"></circle><circle r="10" cx="825" cy="203"></circle><circle r="12" cx="570" cy="170"></circle><circle r="11" cx="456" cy="256"></circle><circle r="9" cx="530" cy="251"></circle><circle r="10" cx="30" cy="176"></circle><circle r="11" cx="791" cy="194"></circle><circle r="12" cx="150" cy="306"></circle><circle r="9" cx="868" cy="199"></circle><circle r="12" cx="216" cy="267"></circle><circle r="11" cx="728" cy="96"></circle><circle r="10" cx="235" cy="47"></circle><circle r="10" cx="899" cy="29"></circle><circle r="12" cx="536" cy="319"></circle><circle r="11" cx="734" cy="170"></circle><circle r="11" cx="483" cy="169"></circle><circle r="11" cx="197" cy="374"></circle><circle r="9" cx="91" cy="135"></circle><circle r="10" cx="852" cy="161"></circle><circle r="9" cx="76" cy="222"></circle><circle r="9" cx="421" cy="543"></circle><circle r="11" cx="526" cy="179"></circle><circle r="12" cx="580" cy="413"></circle><circle r="11" cx="738" cy="26"></circle><circle r="9" cx="31" cy="111"></circle><circle r="9" cx="522" cy="413"></circle><circle r="9" cx="299" cy="396"></circle><circle r="12" cx="350" cy="10"></circle><circle r="10" cx="47" cy="516"></circle><circle r="9" cx="772" cy="511"></circle><circle r="9" cx="890" cy="586"></circle><circle r="10" cx="119" cy="563"></circle><circle r="9" cx="447" cy="344"></circle><circle r="12" cx="881" cy="458"></circle><circle r="9" cx="737" cy="360"></circle><circle r="9" cx="95" cy="510"></circle><circle r="9" cx="505" cy="154"></circle><circle r="12" cx="883" cy="86"></circle><circle r="12" cx="838" cy="460"></circle><circle r="10" cx="518" cy="84"></circle><circle r="9" cx="322" cy="504"></circle><circle r="9" cx="46" cy="420"></circle><circle r="12" cx="507" cy="457"></circle><circle r="12" cx="648" cy="445"></circle><circle r="12" cx="894" cy="164"></circle><circle r="11" cx="492" cy="319"></circle><circle r="10" cx="80" cy="401"></circle><circle r="11" cx="640" cy="134"></circle><circle r="9" cx="447" cy="453"></circle><circle r="11" cx="320" cy="120"></circle><circle r="10" cx="794" cy="114"></circle><circle r="11" cx="125" cy="77"></circle><circle r="12" cx="326" cy="167"></circle><circle r="12" cx="859" cy="433"></circle><circle r="11" cx="511" cy="18"></circle><circle r="12" cx="370" cy="319"></circle><circle r="12" cx="394" cy="191"></circle><circle r="12" cx="702" cy="165"></circle><circle r="9" cx="403" cy="109"></circle><circle r="11" cx="257" cy="229"></circle><circle r="11" cx="240" cy="338"></circle><circle r="11" cx="88" cy="565"></circle><circle r="9" cx="457" cy="151"></circle><circle r="10" cx="363" cy="209"></circle><circle r="12" cx="781" cy="574"></circle><circle r="9" cx="384" cy="228"></circle><circle r="10" cx="699" cy="423"></circle><circle r="9" cx="142" cy="450"></circle><circle r="11" cx="75" cy="279"></circle><circle r="11" cx="156" cy="10"></circle><circle r="10" cx="860" cy="594"></circle><circle r="10" cx="180" cy="499"></circle><circle r="11" cx="682" cy="362"></circle><circle r="12" cx="392" cy="553"></circle><circle r="12" cx="102" cy="98"></circle><circle r="10" cx="112" cy="47"></circle><circle r="10" cx="562" cy="207"></circle><circle r="9" cx="744" cy="277"></circle><circle r="11" cx="697" cy="264"></circle><circle r="11" cx="557" cy="88"></circle><circle r="11" cx="18" cy="517"></circle><circle r="12" cx="360" cy="571"></circle><circle r="11" cx="765" cy="21"></circle><circle r="11" cx="187" cy="329"></circle><circle r="10" cx="425" cy="515"></circle><circle r="9" cx="155" cy="538"></circle><circle r="12" cx="600" cy="395"></circle><circle r="12" cx="622" cy="168"></circle><circle r="9" cx="231" cy="189"></circle><circle r="9" cx="379" cy="159"></circle><circle r="12" cx="101" cy="252"></circle><circle r="12" cx="706" cy="473"></circle><circle r="9" cx="151" cy="270"></circle><circle r="10" cx="166" cy="365"></circle><circle r="11" cx="262" cy="112"></circle><circle r="12" cx="189" cy="544"></circle><circle r="12" cx="627" cy="19"></circle><circle r="11" cx="418" cy="82"></circle><circle r="9" cx="550" cy="405"></circle><circle r="9" cx="484" cy="397"></circle><circle r="11" cx="289" cy="355"></circle><circle r="10" cx="630" cy="512"></circle><circle r="11" cx="607" cy="585"></circle><circle r="9" cx="297" cy="323"></circle><circle r="12" cx="317" cy="92"></circle><circle r="9" cx="819" cy="155"></circle><circle r="12" cx="765" cy="457"></circle><circle r="12" cx="538" cy="489"></circle><circle r="11" cx="155" cy="582"></circle><circle r="12" cx="75" cy="444"></circle><circle r="10" cx="182" cy="59"></circle><circle r="12" cx="684" cy="490"></circle><circle r="9" cx="569" cy="15"></circle><circle r="11" cx="138" cy="355"></circle><circle r="11" cx="338" cy="532"></circle><circle r="11" cx="623" cy="545"></circle><circle r="9" cx="408" cy="218"></circle><circle r="11" cx="325" cy="439"></circle><circle r="12" cx="808" cy="599"></circle><circle r="11" cx="270" cy="57"></circle><circle r="9" cx="471" cy="520"></circle><circle r="9" cx="602" cy="292"></circle><circle r="10" cx="261" cy="408"></circle><circle r="10" cx="658" cy="22"></circle><circle r="11" cx="452" cy="483"></circle><circle r="12" cx="749" cy="55"></circle><circle r="10" cx="305" cy="48"></circle><circle r="12" cx="363" cy="46"></circle><circle r="9" cx="844" cy="512"></circle><circle r="11" cx="679" cy="582"></circle><circle r="10" cx="710" cy="540"></circle><circle r="9" cx="49" cy="318"></circle><circle r="9" cx="688" cy="229"></circle><circle r="10" cx="333" cy="323"></circle><circle r="11" cx="289" cy="88"></circle><circle r="10" cx="741" cy="474"></circle><circle r="9" cx="725" cy="401"></circle><circle r="12" cx="361" cy="474"></circle><circle r="10" cx="389" cy="63"></circle><circle r="12" cx="587" cy="519"></circle><circle r="12" cx="313" cy="279"></circle><circle r="9" cx="504" cy="119"></circle><circle r="12" cx="870" cy="374"></circle><circle r="11" cx="751" cy="250"></circle><circle r="10" cx="237" cy="18"></circle><circle r="9" cx="202" cy="91"></circle><circle r="9" cx="412" cy="369"></circle><circle r="11" cx="390" cy="347"></circle><circle r="9" cx="520" cy="212"></circle><circle r="11" cx="752" cy="116"></circle><circle r="11" cx="569" cy="598"></circle><circle r="10" cx="216" cy="467"></circle><circle r="12" cx="15" cy="546"></circle><circle r="10" cx="450" cy="392"></circle><circle r="11" cx="371" cy="283"></circle><circle r="12" cx="465" cy="305"></circle><circle r="12" cx="566" cy="370"></circle><circle r="10" cx="662" cy="215"></circle><circle r="10" cx="656" cy="301"></circle><circle r="12" cx="459" cy="27"></circle><circle r="9" cx="569" cy="331"></circle><circle r="11" cx="894" cy="215"></circle><circle r="12" cx="453" cy="596"></circle><circle r="11" cx="685" cy="451"></circle><circle r="12" cx="588" cy="441"></circle><circle r="12" cx="168" cy="460"></circle><circle r="11" cx="400" cy="502"></circle><circle r="12" cx="809" cy="506"></circle><circle r="10" cx="141" cy="165"></circle><circle r="11" cx="824" cy="99"></circle><circle r="12" cx="49" cy="62"></circle><circle r="12" cx="839" cy="35"></circle><circle r="9" cx="841" cy="543"></circle><circle r="9" cx="15" cy="283"></circle><circle r="9" cx="303" cy="534"></circle><circle r="12" cx="443" cy="62"></circle><circle r="12" cx="843" cy="260"></circle><circle r="12" cx="234" cy="596"></circle><circle r="9" cx="221" cy="303"></circle><circle r="11" cx="328" cy="468"></circle><circle r="12" cx="746" cy="525"></circle><circle r="11" cx="801" cy="218"></circle><circle r="10" cx="20" cy="23"></circle><circle r="12" cx="811" cy="36"></circle><circle r="10" cx="652" cy="90"></circle><circle r="10" cx="538" cy="9"></circle><circle r="9" cx="497" cy="577"></circle><circle r="11" cx="258" cy="584"></circle><circle r="9" cx="333" cy="407"></circle><circle r="11" cx="93" cy="599"></circle><circle r="10" cx="195" cy="401"></circle><circle r="12" cx="417" cy="336"></circle><circle r="11" cx="673" cy="115"></circle><circle r="12" cx="528" cy="587"></circle><circle r="12" cx="236" cy="421"></circle><circle r="11" cx="125" cy="277"></circle><circle r="9" cx="865" cy="489"></circle><circle r="10" cx="575" cy="482"></circle><circle r="12" cx="506" cy="498"></circle><circle r="9" cx="380" cy="399"></circle><circle r="11" cx="537" cy="435"></circle><circle r="12" cx="686" cy="391"></circle><circle r="12" cx="244" cy="365"></circle><circle r="9" cx="302" cy="150"></circle><circle r="11" cx="890" cy="115"></circle><circle r="11" cx="681" cy="526"></circle><circle r="9" cx="3" cy="193"></circle><circle r="11" cx="756" cy="410"></circle><circle r="11" cx="84" cy="45"></circle><circle r="10" cx="230" cy="551"></circle><circle r="10" cx="330" cy="62"></circle><circle r="11" cx="16" cy="51"></circle><circle r="10" cx="73" cy="477"></circle><circle r="11" cx="340" cy="285"></circle><circle r="12" cx="594" cy="58"></circle><circle r="12" cx="599" cy="21"></circle><circle r="11" cx="485" cy="30"></circle><circle r="9" cx="244" cy="131"></circle><circle r="12" cx="753" cy="578"></circle><circle r="9" cx="792" cy="57"></circle><circle r="9" cx="553" cy="567"></circle><circle r="12" cx="4" cy="389"></circle><circle r="12" cx="208" cy="42"></circle><circle r="12" cx="467" cy="194"></circle><circle r="9" cx="133" cy="597"></circle><circle r="9" cx="234" cy="158"></circle><circle r="12" cx="278" cy="493"></circle><circle r="11" cx="869" cy="344"></circle><circle r="11" cx="716" cy="286"></circle><circle r="11" cx="886" cy="542"></circle><circle r="9" cx="65" cy="144"></circle><circle r="12" cx="273" cy="21"></circle><circle r="11" cx="826" cy="235"></circle><circle r="9" cx="181" cy="431"></circle><circle r="10" cx="819" cy="70"></circle><circle r="9" cx="123" cy="521"></circle><circle r="10" cx="397" cy="307"></circle><circle r="9" cx="87" cy="19"></circle><circle r="12" cx="32" cy="356"></circle><circle r="11" cx="210" cy="119"></circle><circle r="9" cx="714" cy="3"></circle><circle r="9" cx="292" cy="469"></circle><circle r="12" cx="866" cy="401"></circle><circle r="12" cx="678" cy="330"></circle><circle r="12" cx="803" cy="552"></circle><circle r="9" cx="759" cy="382"></circle><circle r="11" cx="466" cy="550"></circle><circle r="12" cx="886" cy="320"></circle><circle r="11" cx="183" cy="31"></circle><circle r="9" cx="301" cy="217"></circle><circle r="11" cx="56" cy="370"></circle><circle r="9" cx="865" cy="50"></circle><circle r="9" cx="124" cy="3"></circle><circle r="11" cx="621" cy="451"></circle><circle r="10" cx="142" cy="132"></circle><circle r="11" cx="107" cy="176"></circle><circle r="11" cx="482" cy="444"></circle><circle r="10" cx="422" cy="472"></circle><circle r="11" cx="648" cy="404"></circle><circle r="11" cx="115" cy="430"></circle><circle r="11" cx="378" cy="97"></circle><circle r="12" cx="349" cy="363"></circle><circle r="9" cx="59" cy="33"></circle><circle r="10" cx="36" cy="149"></circle><circle r="12" cx="186" cy="186"></circle><circle r="11" cx="772" cy="547"></circle><circle r="11" cx="632" cy="281"></circle><circle r="12" cx="435" cy="276"></circle><circle r="10" cx="429" cy="143"></circle><circle r="11" cx="280" cy="260"></circle><circle r="9" cx="207" cy="348"></circle><circle r="12" cx="507" cy="57"></circle><circle r="12" cx="4" cy="241"></circle><circle r="11" cx="270" cy="323"></circle><circle r="12" cx="407" cy="253"></circle><circle r="12" cx="356" cy="599"></circle><circle r="11" cx="195" cy="1"></circle><circle r="10" cx="2" cy="104"></circle><circle r="9" cx="186" cy="593"></circle><circle r="10" cx="66" cy="593"></circle><circle r="10" cx="804" cy="450"></circle><circle r="12" cx="599" cy="153"></circle><circle r="12" cx="632" cy="213"></circle><circle r="9" cx="382" cy="127"></circle><circle r="11" cx="481" cy="275"></circle><circle r="9" cx="495" cy="194"></circle><circle r="10" cx="557" cy="233"></circle><circle r="12" cx="224" cy="397"></circle><circle r="11" cx="115" cy="328"></circle><circle r="11" cx="319" cy="194"></circle><circle r="10" cx="839" cy="7"></circle><circle r="12" cx="321" cy="598"></circle><circle r="12" cx="551" cy="464"></circle><circle r="12" cx="532" cy="112"></circle><circle r="12" cx="389" cy="471"></circle><circle r="10" cx="303" cy="2"></circle><circle r="12" cx="709" cy="375"></circle><circle r="10" cx="714" cy="42"></circle><circle r="10" cx="472" cy="3"></circle><circle r="10" cx="537" cy="360"></circle><circle r="12" cx="463" cy="228"></circle><circle r="9" cx="622" cy="379"></circle><circle r="11" cx="243" cy="449"></circle><circle r="11" cx="626" cy="253"></circle><circle r="10" cx="47" cy="286"></circle><circle r="9" cx="853" cy="227"></circle><circle r="11" cx="498" cy="528"></circle><circle r="9" cx="1" cy="144"></circle><circle r="10" cx="697" cy="197"></circle><circle r="12" cx="781" cy="309"></circle><circle r="12" cx="563" cy="115"></circle><circle r="11" cx="567" cy="537"></circle><circle r="12" cx="860" cy="567"></circle><circle r="11" cx="20" cy="410"></circle><circle r="10" cx="723" cy="449"></circle><circle r="11" cx="40" cy="393"></circle><circle r="10" cx="367" cy="542"></circle><circle r="11" cx="669" cy="425"></circle><circle r="10" cx="242" cy="250"></circle><circle r="9" cx="722" cy="253"></circle><circle r="10" cx="4" cy="349"></circle><circle r="12" cx="768" cy="354"></circle><circle r="10" cx="531" cy="39"></circle><circle r="10" cx="412" cy="167"></circle><circle r="11" cx="2" cy="579"></circle><circle r="12" cx="501" cy="253"></circle><circle r="11" cx="820" cy="573"></circle><circle r="9" cx="150" cy="386"></circle><circle r="11" cx="646" cy="179"></circle><circle r="11" cx="865" cy="4"></circle><circle r="10" cx="433" cy="414"></circle><circle r="9" cx="764" cy="188"></circle><circle r="11" cx="824" cy="321"></circle><circle r="12" cx="331" cy="254"></circle><circle r="12" cx="55" cy="542"></circle><circle r="12" cx="135" cy="103"></circle><circle r="9" cx="209" cy="439"></circle><circle r="10" cx="47" cy="447"></circle><circle r="11" cx="539" cy="285"></circle><circle r="11" cx="408" cy="43"></circle><circle r="9" cx="82" cy="186"></circle><circle r="10" cx="418" cy="575"></circle><circle r="11" cx="77" cy="108"></circle><circle r="12" cx="276" cy="382"></circle><circle r="12" cx="765" cy="486"></circle><circle r="12" cx="833" cy="486"></circle><circle r="11" cx="805" cy="401"></circle><circle r="10" cx="656" cy="494"></circle><circle r="10" cx="446" cy="176"></circle><circle r="11" cx="321" cy="381"></circle><circle r="10" cx="110" cy="368"></circle><circle r="9" cx="347" cy="184"></circle><circle r="9" cx="893" cy="3"></circle><circle r="10" cx="560" cy="145"></circle><circle r="12" cx="248" cy="305"></circle><circle r="11" cx="50" cy="206"></circle><circle r="12" cx="375" cy="369"></circle><circle r="9" cx="277" cy="528"></circle><circle r="12" cx="204" cy="244"></circle><circle r="12" cx="538" cy="68"></circle><circle r="11" cx="446" cy="1"></circle><circle r="11" cx="157" cy="337"></circle><circle r="12" cx="878" cy="142"></circle><circle r="12" cx="353" cy="152"></circle><circle r="9" cx="375" cy="1"></circle><circle r="10" cx="732" cy="501"></circle><circle r="11" cx="116" cy="150"></circle><circle r="12" cx="257" cy="201"></circle><circle r="11" cx="480" cy="136"></circle><circle r="9" cx="898" cy="382"></circle><circle r="10" cx="894" cy="487"></circle><circle r="9" cx="724" cy="194"></circle><circle r="9" cx="615" cy="122"></circle><circle r="9" cx="578" cy="306"></circle></g></svg>